<svg width="1365" height="1747" viewBox="0 0 1365 1747" fill="none" xmlns="http://www.w3.org/2000/svg">
<mask id="mask0_5_9" style="mask-type:alpha" maskUnits="userSpaceOnUse" x="7" y="-105" width="1351" height="1852">
<rect x="7" y="-105" width="1351" height="1852" fill="#E1E3E9"/>
</mask>
<g mask="url(#mask0_5_9)">
<path d="M-152 479.966C-141.998 479.966 -122.94 495.142 -122.94 495.142C-107.619 501.762 -83.7083 512.094 -83.7083 512.094C-83.7083 512.094 -52.8058 524.298 -32.2069 529.369C-10.1537 534.798 25.2679 538.248 25.2679 538.248C98.651 544.066 170.343 558.713 211.254 507.574C218.413 498.625 221.166 482.872 205.442 482.872C189.586 482.872 182.421 486.718 169.116 493.043C146.303 503.889 124.942 520.371 121.328 536.634C116.413 558.753 111.913 599.171 126.979 618.003C149.659 646.353 240.314 642.543 240.314 642.543C240.314 642.543 332.302 640.21 389.813 628.82C414.519 623.927 452.454 613.482 452.454 613.482L530.917 583.938L627.072 544.5C627.072 544.5 657.513 528.592 677.072 518.5C706.096 503.524 751.572 480.5 751.572 480.5C751.572 480.5 789.041 463.71 813.072 453C843.587 439.399 891.265 418.294 891.265 418.294C891.265 418.294 935.835 402.191 958.104 394.238C975.23 388.122 993.641 385.064 1010.41 377.609C1030.66 368.61 1074.18 359.527 1074.18 359.527C1074.18 359.527 1116.58 346.73 1144.09 339.831C1194.56 327.174 1322.95 314.042 1365.07 300" stroke="#647CE9" stroke-width="6" stroke-linecap="round"/>
</g>
</svg>
