<svg width="1443" height="349" viewBox="0 0 1443 349" fill="none" xmlns="http://www.w3.org/2000/svg">
<path d="M-78 182.966C-67.9982 182.966 -48.9397 198.142 -48.9397 198.142C-33.6189 204.762 -9.70827 215.094 -9.70827 215.094C-9.70827 215.094 21.1942 227.298 41.7931 232.369C63.8463 237.798 99.2679 241.248 99.2679 241.248C172.651 247.066 244.343 261.713 285.254 210.574C292.413 201.625 295.166 185.872 279.442 185.872C263.586 185.872 256.421 189.718 243.116 196.043C220.303 206.889 198.942 223.371 195.328 239.634C190.413 261.753 185.913 302.171 200.979 321.003C223.659 349.353 314.314 345.543 314.314 345.543C314.314 345.543 406.302 343.21 463.813 331.82C488.519 326.927 526.454 316.482 526.454 316.482L604.917 286.938L701.072 247.5C701.072 247.5 731.513 231.592 751.072 221.5C780.096 206.524 825.572 183.5 825.572 183.5C825.572 183.5 863.041 166.71 887.072 156C917.587 142.399 965.265 121.294 965.265 121.294C965.265 121.294 1009.84 105.191 1032.1 97.2384C1049.23 91.122 1067.64 88.0635 1084.41 80.6095C1104.66 71.6103 1148.18 62.5275 1148.18 62.5275C1148.18 62.5275 1190.58 49.7304 1218.09 42.8311C1268.56 30.1743 1396.95 17.0417 1439.07 3" stroke="#647CE9" stroke-width="6" stroke-linecap="round"/>
</svg>
